<?xml version="1.0" encoding="utf-8"?>
<svg xmlns="http://www.w3.org/2000/svg" viewBox="0 0 24 24">
    <defs>
        <clipPath id="squircle">
            <path d="M 0 12 C 0 3, 3 0, 12 0 S24 3, 24 12, 21 24 12 24, 0 21, 0 12"/>
        </clipPath>
    </defs>

    <rect fill="#ff5722" clip-path="url(#squircle)" x="0" y="0" width="24" height="24" />
    <g transform="translate(4.32, 4.32) scale(0.64)">
        <path fill="#fff" d="M10,12A2,2 0 0,0 8,14A2,2 0 0,0 10,16A2,2 0 0,0 12,14A2,2 0 0,0 10,12M6,8A2,2 0 0,0 4,10A2,2 0 0,0 6,12A2,2 0 0,0 8,10A2,2 0 0,0 6,8M6,16A2,2 0 0,0 4,18A2,2 0 0,0 6,20A2,2 0 0,0 8,18A2,2 0 0,0 6,16M18,8A2,2 0 0,0 20,6A2,2 0 0,0 18,4A2,2 0 0,0 16,6A2,2 0 0,0 18,8M14,16A2,2 0 0,0 12,18A2,2 0 0,0 14,20A2,2 0 0,0 16,18A2,2 0 0,0 14,16M18,12A2,2 0 0,0 16,14A2,2 0 0,0 18,16A2,2 0 0,0 20,14A2,2 0 0,0 18,12M14,8A2,2 0 0,0 12,10A2,2 0 0,0 14,12A2,2 0 0,0 16,10A2,2 0 0,0 14,8M10,4A2,2 0 0,0 8,6A2,2 0 0,0 10,8A2,2 0 0,0 12,6A2,2 0 0,0 10,4Z"/>
    </g>
</svg>
