<?xml version="1.0" encoding="utf-8"?>
<!-- A modified version of the official Tweakers logo -->
<svg xmlns="http://www.w3.org/2000/svg" viewBox="0 0 76.97 76.97">
    <path fill="#dae64a" d="M74.72 25.48a.66.66 0 000 .09l-21 28.33a5.26 5.26 0 01-4.53 2.43H28.61c-2.74 0-3.9-.76-5.05-3.64l-6.21-20.13a5.6 5.6 0 01.44-5.35L38.67.01h-.18a38.47 38.47 0 1036.23 25.47z" />
    <path fill="#000" d="M17.35 32.56l6.26 20.13c1.13 2.87 2.29 3.64 5 3.64h20.6a5.26 5.26 0 0 0 4.53-2.43l21-28.34A38.49 38.49 0 0 0 38.74 0L17.79 27.23a5.6 5.6 0 0 0 -.44 5.33z" />
    <path fill="#000" d="M32.918 7.752L94.09-71.355l34.794 26.907-61.173 79.106z"/>
    <path fill="#fff" d="M34.53 48.09h8.29V33.98h8.57V25.7H25.87v8.28h8.66v14.11z" />
    <!-- Clean cut: <path fill="#000" d="M17.35 32.56l6.26 20.13c1.13 2.87 2.29 3.64 5 3.64h20.6a5.26 5.26 0 0 0 4.53 -2.43 l21 -28.34 V0 H38.74 L17.79 27.23 a5.6 5.6 0 0 0 -.44 5.33zm8.53-6.88h25.51v8.29h-8.57v14.1h-8.28V33.99h-8.66z"/> -->
    <!-- Extend rect: <rect transform="rotate(-52.28520202636719 66.67881011962889,0.044407904148103125)" height="43.9839" width="100" y="-21.94754" x="39.92906" fill="#000" /> -->
</svg>
