<?xml version="1.0" encoding="utf-8"?>
<svg xmlns="http://www.w3.org/2000/svg" viewBox="0 0 24 24">
    <defs>
        <clipPath id="squircle">
            <path d="M 0 12 C 0 3, 3 0, 12 0 S24 3, 24 12, 21 24 12 24, 0 21, 0 12"/>
        </clipPath>
    </defs>

    <rect fill="#fff" clip-path="url(#squircle)" x="0" y="0" width="24" height="24" />
    <g transform="translate(2.4, 2.4) scale(0.8)">
        <path fill="#111" d="M20,8H4V6H20M20,18H4V12H20M20,4H4C2.89,4 2,4.89 2,6V18A2,2 0 0,0 4,20H20A2,2 0 0,0 22,18V6C22,4.89 21.1,4 20,4Z"/>
    </g>
</svg>
