<?xml version="1.0" encoding="utf-8"?>
<svg xmlns="http://www.w3.org/2000/svg" viewBox="0 0 76.97 76.97">
    <defs>
        <clipPath id="squircle">
            <path d="M 0 38.485 C 0 9.6225, 9.6225 0, 38.485 0 S76.97 9.6225, 76.97 38.485, 67.3475 76.97, 38.485 76.97, 0 67.3475, 0 38.485"/>
        </clipPath>
    </defs>

    <rect fill="#dae64a" clip-path="url(#squircle)" x="0" y="0" width="76.97" height="76.97" />
    <g clip-path="url(#squircle)">
        <g transform="translate(1.5394, 1.5394) scale(0.96)">
            <path fill="#000" d="M17.35 32.56l6.26 20.13c1.13 2.87 2.29 3.64 5 3.64h20.6a5.26 5.26 0 0 0 4.53-2.43l21-28.34A38.49 38.49 0 0 0 38.74 0L17.79 27.23a5.6 5.6 0 0 0 -.44 5.33z" />
            <path fill="#000" d="M17.35 32.56l6.26 20.13c1.13 2.87 2.29 3.64 5 3.64h20.6a5.26 5.26 0 0 0 4.53 -2.43 l21 -28.34 V0 H38.74 L17.79 27.23 a5.6 5.6 0 0 0 -.44 5.33zm8.53-6.88h25.51v8.29h-8.57v14.1h-8.28V33.99h-8.66z"/>
            <rect fill="#000" transform="rotate(-52.28520202636719 66.67881011962889,0.044407904148103125)" height="43.9839" width="100" y="-21.94754" x="39.92906" />
            <path fill="#fff" d="M34.53 48.09h8.29V33.98h8.57V25.7H25.87v8.28h8.66v14.11z" />
        </g>
    </g>
</svg>
